#!OML:ASF F:\VICON\USERDATA\INSTALL\rory3\rory3.ASF
:FULLY-SPECIFIED
:DEGREES
883
root -5.57453 18.2497 8.39095 -162.37 -81.883 168.126
lowerback 18.3937 1.17227 -7.38151
upperback 7.71403 -0.425661 -2.81928
thorax -1.97496 -0.562991 1.27596
lowerneck -8.2471 7.94332 -1.98262
upperneck 23.873 10.3516 1.70532
head 8.57913 4.62758 1.85225
rclavicle -1.51076e-014 -3.02153e-014
rhumerus -22.7215 38.8931 -91.362
rradius 112.429
rwrist -30.4678
rhand -61.1256 -8.40686
rfingers 7.12502
rthumb -33.2228 -35.3598
lclavicle -1.51076e-014 -3.02153e-014
lhumerus -1.84474 -14.0338 90.3082
lradius 51.7493
lwrist 76.8246
lhand -35.1059 60.8128
lfingers 7.12502
lthumb -8.24696 -90.6318
rfemur -35.8166 30.0651 -8.36779
rtibia 32.723
rfoot -3.51835 6.67334
rtoes -10.847
lfemur -11.8353 -9.06346 -12.3381
ltibia 26.4641
lfoot -16.4668 -9.26786
ltoes 1.63845
884
root -5.5221 18.2688 8.51121 -161.203 -81.1495 166.973
lowerback 18.4652 1.24495 -7.76849
upperback 7.7256 -0.428595 -3.02351
thorax -1.99491 -0.575271 1.27621
lowerneck -8.14734 8.05718 -1.77714
upperneck 23.4639 10.5188 1.52437
head 8.44178 4.72224 1.75864
rclavicle 2.06736e-014 -1.82882e-014
rhumerus -22.9539 38.9092 -91.9265
rradius 111.956
rwrist -29.8752
rhand -61.1108 -7.61144
rfingers 7.12502
rthumb -33.2086 -34.5674
lclavicle 2.06736e-014 -1.82882e-014
lhumerus -1.54709 -13.7403 90.055
lradius 50.6476
lwrist 75.5957
lhand -33.6441 60.7594
lfingers 7.12502
lthumb -6.83601 -90.629
rfemur -36.1735 30.3231 -9.21109
rtibia 32.3096
rfoot -2.71353 5.97209
rtoes -9.98487
lfemur -12.1514 -8.72321 -13.1674
ltibia 26.7417
lfoot -16.3326 -8.73257
ltoes 0.893179
885
root -5.46721 18.2866 8.63538 -161.095 -80.4649 166.986
lowerback 18.4774 1.26701 -7.96506
upperback 7.71809 -0.452546 -3.17405
thorax -2.0058 -0.592577 1.23089
lowerneck -7.97661 8.1587 -1.77689
upperneck 22.9511 10.6743 1.46187
head 8.23826 4.81034 1.72738
rclavicle 2.46493e-014 0
rhumerus -23.3853 38.9314 -92.5356
rradius 111.651
rwrist -29.2099
rhand -61.3765 -7.16724
rfingers 7.12502
rthumb -33.4612 -34.069
lclavicle 2.46493e-014 0
lhumerus -1.31293 -13.7811 89.7488
lradius 49.6768
lwrist 74.9981
lhand -32.5406 60.5888
lfingers 7.12502
lthumb -5.77069 -90.4903
rfemur -36.603 30.2385 -9.74737
rtibia 31.9522
rfoot -1.95238 5.55674
rtoes -9.54654
lfemur -12.5896 -8.18528 -13.8228
ltibia 27.0087
lfoot -16.1615 -8.08955
ltoes -0.377327
886
root -5.41352 18.3057 8.75012 -162.3 -79.773 168.335
lowerback 18.4407 1.3054 -8.11991
upperback 7.72184 -0.435127 -3.22506
thorax -1.98204 -0.590478 1.25953
lowerneck -7.86474 8.25003 -1.83055
upperneck 22.494 10.828 1.38634
head 8.06337 4.88965 1.70452
rclavicle -5.56597e-015 6.20208e-014
rhumerus -23.904 38.5696 -93.3832
rradius 111.303
rwrist -28.4293
rhand -61.4168 -7.57785
rfingers 7.12502
rthumb -33.4995 -34.4713
lclavicle -5.56597e-015 6.20208e-014
lhumerus -1.06431 -13.9317 89.4525
lradius 48.7121
lwrist 74.7138
lhand -32.3616 60.282
lfingers 7.12502
lthumb -5.59786 -90.1881
rfemur -37.082 30.3036 -10.0076
rtibia 31.5929
rfoot -1.22896 4.8194
rtoes -9.00412
lfemur -13.0333 -7.50258 -14.1771
ltibia 27.344
lfoot -16.0325 -7.71693
ltoes -0.578156
887
root -5.36133 18.3283 8.85107 -164.776 -79.1061 171.132
lowerback 18.2182 1.34227 -8.17645
upperback 7.69461 -0.369821 -3.18245
thorax -1.89972 -0.561285 1.32322
lowerneck -7.77713 8.35393 -1.86804
upperneck 22.1365 10.9859 1.34456
head 7.92582 4.97138 1.69434
rclavicle -9.54166e-015 6.04305e-014
rhumerus -24.1039 37.4014 -94.5618
rradius 110.394
rwrist -27.6252
rhand -60.7286 -6.78231
rfingers 7.12502
rthumb -32.8452 -33.8151
lclavicle -9.54166e-015 6.04305e-014
lhumerus -0.814533 -13.9446 89.2291
lradius 47.6928
lwrist 74.2668
lhand -32.4615 59.833
lfingers 7.12502
lthumb -5.69434 89.7365
rfemur -37.7087 30.3347 -9.93973
rtibia 31.1891
rfoot -0.404179 3.60402
rtoes -7.4463
lfemur -13.6459 -6.64556 -14.0841
ltibia 27.7073
lfoot -15.8521 -7.80551
ltoes 0.573731
888
root -5.31118 18.3519 8.94961 -168.858 -78.4022 175.707
lowerback 17.8954 1.33798 -7.87498
upperback 7.65176 -0.276725 -3.05393
thorax -1.78936 -0.509533 1.27337
lowerneck -7.91445 8.48441 -1.92177
upperneck 21.9889 11.1671 1.41152
head 7.8905 5.06494 1.74122
rclavicle -5.56597e-015 5.56597e-014
rhumerus -24.4681 37.6955 -94.9175
rradius 110.167
rwrist -27.1498
rhand -60.7444 -6.77844
rfingers 7.12502
rthumb -32.8602 -33.808
lclavicle -5.56597e-015 5.56597e-014
lhumerus -0.543107 -13.9257 88.9641
lradius 46.6383
lwrist 73.8969
lhand -32.1094 59.3434
lfingers 7.12502
lthumb -5.35439 89.2557
rfemur -38.4052 30.2116 -9.35286
rtibia 30.7459
rfoot 0.571421 2.00102
rtoes -4.76629
lfemur -14.3338 -5.79163 -13.4982
ltibia 28.0212
lfoot -15.7283 -7.82839
ltoes 1.67582
889
root -5.26102 18.375 9.05183 -171.601 -77.3963 178.794
lowerback 17.704 1.46244 -7.76055
upperback 7.62861 -0.0755895 -3.00808
thorax -1.73155 -0.410093 1.2202
lowerneck -8.08293 8.6028 -1.88796
upperneck 21.9005 11.3335 1.40771
head 7.89074 5.14927 1.75465
rclavicle -1.03368e-014 -1.43125e-014
rhumerus -24.5811 35.8235 -96.2653
rradius 109.524
rwrist -25.7658
rhand -59.7158 -6.61237
rfingers 7.12502
rthumb -31.8813 -33.8421
lclavicle -1.03368e-014 -1.43125e-014
lhumerus -0.24872 -14.0342 88.7575
lradius 45.53
lwrist 73.5817
lhand -31.4535 58.9945
lfingers 7.12502
lthumb -4.72108 88.9219
rfemur -38.9095 29.8705 -8.72085
rtibia 30.2144
rfoot 1.75259 0.653969
rtoes -2.34198
lfemur -14.7534 -4.96152 -13.222
ltibia 28.221
lfoot -15.7678 -7.54532
ltoes 1.73715
890
root -5.21235 18.4008 9.15372 -172.668 -76.3284 179.992
lowerback 17.733 1.62571 -7.96319
upperback 7.58371 0.0881486 -3.04175
thorax -1.80559 -0.332986 1.26671
lowerneck -8.13099 8.73218 -1.92815
upperneck 21.8511 11.5141 1.42084
head 7.87643 5.23358 1.78067
rclavicle 4.37326e-014 1.90833e-014
rhumerus -25.1794 37.0074 -96.1866
rradius 109.542
rwrist -25.32
rhand -58.9579 -5.6756
rfingers 7.12502
rthumb -31.1593 -33.0466
lclavicle 4.37326e-014 1.90833e-014
lhumerus -0.159799 -14.1008 88.688
lradius 44.5743
lwrist 73.2144
lhand -31.0073 58.6869
lfingers 7.12502
lthumb -4.29014 88.6234
rfemur -39.0842 29.2577 -8.09092
rtibia 29.623
rfoot 2.70681 -0.0496885
rtoes -0.734558
lfemur -14.9222 -4.23682 -13.3575
ltibia 28.342
lfoot -15.8629 -7.13288
ltoes 1.5095
891
root -5.1675 18.4369 9.25551 -174.505 -75.2637 181.833
lowerback 17.8534 1.76629 -7.91963
upperback 7.56621 0.252062 -3.06101
thorax -1.90052 -0.252178 1.19015
lowerneck -8.14337 8.86434 -1.85199
upperneck 21.8621 11.6853 1.38597
head 7.88659 5.31476 1.77311
rclavicle 4.77083e-015 3.18055e-015
rhumerus -25.7678 37.3477 -96.6511
rradius 109.313
rwrist -24.2249
rhand -58.1013 -5.51145
rfingers 7.12502
rthumb -30.3425 -33.0362
lclavicle 4.77083e-015 3.18055e-015
lhumerus -0.234916 -14.3322 88.5909
lradius 43.7392
lwrist 72.8789
lhand -30.3756 58.3267
lfingers 7.12502
lthumb -3.68021 88.2747
rfemur -39.0602 29.0393 -7.21003
rtibia 28.9936
rfoot 3.4069 -1.09888
rtoes 1.77485
lfemur -14.8466 -3.41662 -13.2671
ltibia 28.3406
lfoot -15.8817 -6.84886
ltoes 1.28531
